# Blender v3.1.2 OBJ File: 'half-cube.blend'
# www.blender.org
o Cube
v 0.500000 0.037758 -0.500000
v 0.500000 -0.500000 -0.500000
v 0.500000 0.009772 0.500000
v 0.500000 -0.500000 0.500000
v -0.500000 0.037758 -0.500000
v -0.500000 -0.500000 -0.500000
v -0.500000 0.037758 0.500000
v -0.500000 -0.500000 0.500000
v 0.500000 -0.164896 -0.500000
v -0.500000 -0.164896 0.500000
v 0.500000 -0.164896 0.500000
v -0.500000 -0.164896 -0.500000
v -0.500000 -0.500000 0.000000
v 0.500000 0.197781 0.000000
v -0.500000 0.037758 0.000000
v 0.500000 -0.500000 0.000000
v 0.500000 -0.164896 0.000000
v -0.500000 -0.164896 0.000000
v 0.000000 -0.500000 -0.500000
v 0.000000 0.185799 0.500000
v 0.000000 -0.500000 0.500000
v 0.000000 0.037758 -0.500000
v 0.000000 -0.164896 -0.500000
v 0.000000 -0.164896 0.500000
v 0.000000 -0.500000 0.000000
v 0.000000 0.212695 0.000000
v -0.500000 -0.500000 0.250000
v 0.500000 0.119832 0.250000
v 0.500000 -0.164896 0.250000
v -0.500000 0.037758 0.250000
v 0.500000 -0.500000 0.250000
v -0.500000 -0.164896 0.250000
v 0.000000 -0.500000 0.250000
v 0.000000 0.213806 0.250000
v -0.500000 0.037758 -0.250000
v 0.500000 -0.500000 -0.250000
v -0.500000 -0.164896 -0.250000
v -0.500000 -0.500000 -0.250000
v 0.500000 0.141415 -0.250000
v 0.500000 -0.154210 -0.250000
v 0.000000 0.173537 -0.250000
v 0.000000 -0.500000 -0.250000
v 0.250000 -0.500000 0.500000
v 0.250000 0.037758 -0.500000
v 0.250000 -0.164896 -0.500000
v 0.250000 0.228110 0.000000
v 0.250000 -0.500000 -0.500000
v 0.250000 0.087883 0.500000
v 0.250000 -0.164896 0.500000
v 0.250000 -0.500000 0.000000
v 0.250000 0.188076 0.250000
v 0.250000 -0.500000 0.250000
v 0.250000 0.197781 -0.250000
v 0.250000 -0.500000 -0.250000
v -0.250000 -0.500000 -0.500000
v -0.250000 0.217748 0.500000
v -0.250000 -0.164896 0.500000
v -0.250000 -0.500000 0.000000
v -0.250000 -0.500000 0.500000
v -0.250000 0.037758 -0.500000
v -0.250000 -0.164896 -0.500000
v -0.250000 0.173537 0.000000
v -0.250000 -0.500000 0.250000
v -0.250000 0.217748 0.250000
v -0.250000 -0.500000 -0.250000
v -0.250000 0.173537 -0.250000
vt 0.281250 0.375000
vt 0.406250 0.375000
vt 0.406250 0.500000
vt 0.281250 0.500000
vt 0.531250 0.875000
vt 0.687500 0.875000
vt 0.593750 1.000000
vt 0.531250 1.000000
vt 0.875000 0.125000
vt 0.781250 0.125000
vt 0.781250 0.000000
vt 0.875000 0.000000
vt 0.687500 0.375000
vt 0.781250 0.375000
vt 0.781250 0.500000
vt 0.687500 0.500000
vt 0.125000 0.875000
vt 0.250000 0.875000
vt 0.187500 1.000000
vt 0.125000 1.000000
vt 0.750000 0.625000
vt 0.687500 0.625000
vt 0.687500 0.500000
vt 0.750000 0.500000
vt 0.125000 0.625000
vt 0.250000 0.625000
vt 0.281250 0.750000
vt 0.125000 0.750000
vt 0.687500 0.125000
vt 0.781250 0.125000
vt 0.781250 0.250000
vt 0.687500 0.250000
vt 0.875000 0.375000
vt 0.781250 0.375000
vt 0.781250 0.250000
vt 0.875000 0.250000
vt 0.281250 0.125000
vt 0.406250 0.125000
vt 0.406250 0.250000
vt 0.281250 0.250000
vt 0.093750 0.125000
vt 0.187500 0.125000
vt 0.187500 0.250000
vt 0.093750 0.250000
vt 0.500000 0.125000
vt 0.593750 0.125000
vt 0.593750 0.250000
vt 0.500000 0.250000
vt 0.750000 0.875000
vt 0.687500 0.875000
vt 0.687500 0.750000
vt 0.750000 0.750000
vt 0.500000 0.375000
vt 0.593750 0.375000
vt 0.593750 0.500000
vt 0.500000 0.500000
vt 0.531250 0.625000
vt 0.625000 0.625000
vt 0.656250 0.750000
vt 0.531250 0.750000
vt 0.093750 0.375000
vt 0.187500 0.375000
vt 0.187500 0.500000
vt 0.093750 0.500000
vt 0.875000 0.500000
vt 0.781250 0.500000
vt 0.500000 0.000000
vt 0.593750 0.000000
vt 0.093750 0.000000
vt 0.187500 0.000000
vt 0.281250 0.000000
vt 0.406250 0.000000
vt 0.687500 0.000000
vt 0.781250 0.000000
vt 0.125000 0.500000
vt 0.218750 0.500000
vt 0.000000 0.000000
vt 0.000000 0.125000
vt 0.000000 0.250000
vt 0.000000 0.375000
vt -0.000000 0.500000
vt 0.531250 0.500000
vt 0.593750 0.500000
vt 0.406250 0.000000
vt 0.406250 0.125000
vt 0.406250 0.250000
vt 0.406250 0.375000
vt 0.406250 0.500000
vt 0.750000 1.000000
vt 0.687500 1.000000
vt 0.406250 0.750000
vt 0.406250 0.875000
vt 0.875000 1.000000
vt 0.875000 0.875000
vt 0.875000 0.750000
vt 0.875000 0.625000
vt 0.406250 0.500000
vt 0.406250 0.625000
vt 1.000000 0.250000
vt 1.000000 0.125000
vt 0.000000 0.500000
vt 0.000000 0.625000
vt 0.000000 0.750000
vt 0.000000 0.875000
vt 1.000000 0.500000
vt 1.000000 0.375000
vt 0.406250 1.000000
vt 1.000000 0.000000
vt 0.000000 1.000000
vt 0.875000 0.500000
vn -0.5843 0.8115 0.0000
vn 0.0000 0.0000 1.0000
vn -1.0000 0.0000 0.0000
vn 0.0000 -1.0000 0.0000
vn 1.0000 0.0000 0.0000
vn 0.0000 0.0000 -1.0000
vn -0.4773 0.8788 0.0000
vn -0.0783 0.9874 -0.1372
vn 0.2330 0.9420 0.2415
vn 0.0206 0.9968 0.0776
vn -0.5325 0.8432 -0.0746
vn -0.0417 0.8599 -0.5087
vn -0.2535 0.9335 -0.2535
vn 0.0992 0.8802 -0.4642
vn 0.1884 0.9558 0.2255
vn 0.2605 0.8900 0.3742
vn 0.1684 0.9712 -0.1684
vn 0.0000 0.8788 -0.4773
vn -0.0700 0.9935 -0.0901
vn -0.0778 0.9939 -0.0778
vn 0.0715 0.9959 0.0558
s off
f 64/1/1 30/2/1 7/3/1 56/4/1
f 57/5/2 56/6/2 7/7/2 10/8/2
f 37/9/3 35/10/3 5/11/3 12/12/3
f 52/13/4 31/14/4 4/15/4 43/16/4
f 29/17/5 28/18/5 3/19/5 11/20/5
f 45/21/6 44/22/6 1/23/6 9/24/6
f 40/25/5 39/26/5 14/27/5 17/28/5
f 54/29/4 36/30/4 16/31/4 50/32/4
f 32/33/3 30/34/3 15/35/3 18/36/3
f 66/37/7 35/38/7 15/39/7 62/40/7
f 53/41/8 41/42/8 26/43/8 46/44/8
f 65/45/4 42/46/4 25/47/4 58/48/4
f 61/49/6 60/50/6 22/51/6 23/52/6
f 63/53/4 33/54/4 21/55/4 59/56/4
f 49/57/2 48/58/2 20/59/2 24/60/2
f 51/61/9 34/62/9 20/63/9 48/64/9
f 46/44/10 26/43/10 34/62/10 51/61/10
f 58/48/4 25/47/4 33/54/4 63/53/4
f 10/65/3 7/66/3 30/34/3 32/33/3
f 17/28/5 14/27/5 28/18/5 29/17/5
f 50/32/4 16/31/4 31/14/4 52/13/4
f 62/40/11 15/39/11 30/2/11 64/1/11
f 55/67/4 19/68/4 42/46/4 65/45/4
f 44/69/12 22/70/12 41/42/12 53/41/12
f 60/71/13 5/72/13 35/38/13 66/37/13
f 47/73/4 2/74/4 36/30/4 54/29/4
f 9/75/5 1/76/5 39/26/5 40/25/5
f 18/36/3 15/35/3 35/10/3 37/9/3
f 19/68/4 47/73/4 54/29/4 42/46/4
f 1/77/14 44/69/14 53/41/14 39/78/14
f 25/47/4 50/32/4 52/13/4 33/54/4
f 14/79/15 46/44/15 51/61/15 28/80/15
f 28/80/16 51/61/16 48/64/16 3/81/16
f 11/82/2 3/83/2 48/58/2 49/57/2
f 39/78/17 53/41/17 46/44/17 14/79/17
f 42/46/4 54/29/4 50/32/4 25/47/4
f 23/52/6 22/51/6 44/22/6 45/21/6
f 33/54/4 52/13/4 43/16/4 21/55/4
f 22/70/18 60/71/18 66/37/18 41/42/18
f 6/84/4 55/67/4 65/45/4 38/85/4
f 26/43/19 62/40/19 64/1/19 34/62/19
f 13/86/4 58/48/4 63/53/4 27/87/4
f 27/87/4 63/53/4 59/56/4 8/88/4
f 12/89/6 5/90/6 60/50/6 61/49/6
f 38/85/4 65/45/4 58/48/4 13/86/4
f 41/42/20 66/37/20 62/40/20 26/43/20
f 24/60/2 20/59/2 56/6/2 57/5/2
f 34/62/21 64/1/21 56/4/21 20/63/21
f 21/91/2 24/60/2 57/5/2 59/92/2
f 6/93/6 12/89/6 61/49/6 55/94/6
f 19/95/6 23/52/6 45/21/6 47/96/6
f 4/97/2 11/82/2 49/57/2 43/98/2
f 13/99/3 18/36/3 37/9/3 38/100/3
f 2/101/5 9/75/5 40/25/5 36/102/5
f 16/103/5 17/28/5 29/17/5 31/104/5
f 8/105/3 10/65/3 32/33/3 27/106/3
f 55/94/6 61/49/6 23/52/6 19/95/6
f 43/98/2 49/57/2 24/60/2 21/91/2
f 36/102/5 40/25/5 17/28/5 16/103/5
f 27/106/3 32/33/3 18/36/3 13/99/3
f 59/92/2 57/5/2 10/8/2 8/107/2
f 38/100/3 37/9/3 12/12/3 6/108/3
f 31/104/5 29/17/5 11/20/5 4/109/5
f 47/96/6 45/21/6 9/24/6 2/110/6
