# Blender v3.1.2 OBJ File: ''
# www.blender.org
mtllib bare-cube.mtl
o Cube.001
v -0.187775 -0.254800 0.250000
v -0.500000 -0.338100 0.250000
v -0.500000 -0.364226 0.500000
v -0.250000 -0.272063 0.500000
v -0.250000 -0.459220 0.500000
v -0.500000 -0.459220 0.500000
v -0.500000 -0.459220 -0.250000
v -0.500000 -0.218610 -0.250000
v -0.500000 -0.272073 -0.500000
v -0.500000 -0.459220 -0.500000
v 0.250000 -0.500000 0.250000
v 0.500000 -0.459220 0.250000
v 0.500000 -0.459220 0.500000
v 0.250000 -0.459220 0.500000
v 0.500000 -0.222060 0.250000
v 0.500000 -0.197239 0.500000
v 0.250000 -0.459220 -0.500000
v 0.250000 -0.168890 -0.500000
v 0.500000 -0.140450 -0.500000
v 0.500000 -0.459220 -0.500000
v 0.500000 -0.459220 -0.250000
v 0.500000 -0.193924 -0.250000
v 0.559228 -0.295566 -0.000000
v 0.500000 -0.459220 -0.000000
v 0.250000 -0.500000 -0.250000
v 0.250000 -0.500000 -0.000000
v -0.500000 -0.459220 0.250000
v -0.500000 -0.338100 -0.000000
v -0.500000 -0.459220 -0.000000
v -0.187775 -0.254800 -0.250000
v -0.187775 -0.254800 -0.000000
v 0.312225 -0.254800 -0.250000
v 0.062225 -0.254800 -0.250000
v 0.062225 -0.330106 -0.000000
v 0.312225 -0.254800 -0.000000
v -0.250000 -0.500000 -0.250000
v 0.000000 -0.500000 -0.250000
v 0.000000 -0.500000 -0.000000
v -0.250000 -0.500000 -0.000000
v -0.250000 -0.459220 -0.500000
v -0.250000 -0.168890 -0.500000
v 0.000000 -0.150893 -0.500000
v 0.000000 -0.459220 -0.500000
v -0.250000 -0.500000 0.250000
v 0.000000 -0.500000 0.250000
v 0.000000 -0.459220 0.500000
v 0.250000 -0.272063 0.500000
v 0.000000 -0.355263 0.500000
v 0.312225 -0.254800 0.250000
v 0.062225 -0.254800 0.250000
vt 0.125000 0.375000
vt 0.125000 0.500000
vt 0.000000 0.500000
vt 0.000000 0.375000
vt 0.812500 0.843750
vt 0.906250 0.843750
vt 0.875000 0.968750
vt 0.812500 0.968750
vt 0.125000 0.625000
vt 0.000000 0.625000
vt 0.031250 0.500000
vt 0.125000 0.500000
vt 0.875000 0.375000
vt 1.000000 0.375000
vt 1.000000 0.500000
vt 0.875000 0.500000
vt 0.812500 0.593750
vt 0.687500 0.593750
vt 0.687500 0.500000
vt 0.812500 0.500000
vt 0.500000 0.843750
vt 0.656250 0.843750
vt 0.656250 0.968750
vt 0.500000 0.968750
vt 0.812500 0.843750
vt 0.687500 0.843750
vt 0.750000 0.718750
vt 0.812500 0.718750
vt 0.875000 0.125000
vt 1.000000 0.125000
vt 1.000000 0.250000
vt 0.875000 0.250000
vt 0.125000 0.875000
vt 0.062500 0.875000
vt 0.062500 0.750000
vt 0.125000 0.750000
vt 0.375000 0.375000
vt 0.375000 0.500000
vt 0.250000 0.500000
vt 0.250000 0.375000
vt 0.375000 0.125000
vt 0.375000 0.250000
vt 0.250000 0.250000
vt 0.250000 0.125000
vt 0.625000 0.125000
vt 0.750000 0.125000
vt 0.750000 0.250000
vt 0.625000 0.250000
vt 0.500000 0.593750
vt 0.656250 0.593750
vt 0.656250 0.718750
vt 0.500000 0.718750
vt 0.625000 0.375000
vt 0.750000 0.375000
vt 0.750000 0.500000
vt 0.625000 0.500000
vt 0.812500 0.593750
vt 0.906250 0.593750
vt 0.875000 0.718750
vt 0.812500 0.718750
vt 0.125000 0.125000
vt 0.125000 0.250000
vt 0.000000 0.281250
vt 0.000000 0.156250
vt 0.125000 1.000000
vt 0.062500 1.000000
vt 0.625000 0.000000
vt 0.750000 0.000000
vt 0.500000 0.156250
vt 0.500000 0.281250
vt 0.500000 0.375000
vt 0.500000 0.500000
vt 0.875000 0.000000
vt 1.000000 0.000000
vt 0.812500 0.968750
vt 0.500000 0.031250
vt 0.375000 0.031250
vt 0.250000 0.000000
vt 0.125000 0.031250
vt 0.000000 0.031250
vt 0.937500 0.500000
vt 0.500000 0.000000
vt 0.500000 0.125000
vt 0.500000 0.250000
vt 0.500000 0.375000
vt 0.500000 0.500000
vt 0.500000 0.500000
vt 0.593750 0.500000
vn -0.2976 0.9536 0.0457
vn 0.0000 -0.0000 1.0000
vn -1.0000 0.0000 0.0000
vn 0.0810 -0.9934 0.0810
vn 1.0000 0.0000 0.0000
vn -0.0000 0.0000 -1.0000
vn 0.9803 -0.1354 -0.1436
vn 0.1610 -0.9870 -0.0000
vn -0.0732 0.9700 0.2318
vn -0.1473 0.9781 0.1473
vn 0.0000 -1.0000 -0.0000
vn 0.0000 -0.9870 0.1610
vn -0.1612 0.9688 0.1880
vn -0.1473 0.9781 -0.1473
vn 0.9799 -0.1448 0.1374
vn -0.2578 0.9662 0.0000
vn 0.0000 -0.9870 -0.1610
vn 0.0337 0.9371 0.3474
vn -0.1180 0.9899 0.0789
vn 0.0810 -0.9934 -0.0810
vn -0.1916 0.9390 0.2856
vn 0.0183 0.9895 -0.1433
vn -0.2384 0.9702 -0.0443
vn -0.0452 0.9779 0.2041
vn -0.0335 0.9316 0.3620
vn -0.0810 -0.9934 -0.0810
vn 0.1473 0.9781 -0.1473
vn -0.1610 -0.9870 -0.0000
vn -0.0810 -0.9934 0.0810
vn 0.1473 0.9781 0.1473
vn 0.1583 0.9516 0.2635
usemtl Material.001
s 1
f 1/1/1 2/2/1 3/3/1 4/4/1
f 5/5/2 4/6/2 3/7/2 6/8/2
f 7/9/3 8/10/3 9/11/3 10/12/3
f 11/13/4 12/14/4 13/15/4 14/16/4
f 12/17/5 15/18/5 16/19/5 13/20/5
f 17/21/6 18/22/6 19/23/6 20/24/6
f 21/25/7 22/26/7 23/27/7 24/28/7
f 25/29/8 21/30/8 24/31/8 26/32/8
f 27/33/3 2/34/3 28/35/3 29/36/3
f 30/37/9 8/38/9 28/39/9 31/40/9
f 32/41/10 33/42/10 34/43/10 35/44/10
f 36/45/11 37/46/11 38/47/11 39/48/11
f 40/49/6 41/50/6 42/51/6 43/52/6
f 44/53/12 45/54/12 46/55/12 5/56/12
f 14/57/2 47/58/2 48/59/2 46/60/2
f 49/61/13 50/62/13 48/63/13 47/64/13
f 35/44/14 34/43/14 50/62/14 49/61/14
f 39/48/11 38/47/11 45/54/11 44/53/11
f 6/65/3 3/66/3 2/34/3 27/33/3
f 24/28/15 23/27/15 15/18/15 12/17/15
f 26/32/8 24/31/8 12/14/8 11/13/8
f 31/40/16 28/39/16 2/2/16 1/1/16
f 40/67/17 43/68/17 37/46/17 36/45/17
f 18/69/18 42/70/18 33/42/18 32/41/18
f 41/71/19 9/72/19 8/38/19 30/37/19
f 17/73/20 20/74/20 21/30/20 25/29/20
f 20/75/5 19/23/5 22/26/5 21/25/5
f 29/36/3 28/35/3 8/10/3 7/9/3
f 43/68/17 17/73/17 25/29/17 37/46/17
f 19/76/21 18/69/21 32/41/21 22/77/21
f 38/47/11 26/32/11 11/13/11 45/54/11
f 23/78/22 35/44/22 49/61/22 15/79/22
f 15/79/23 49/61/23 47/64/23 16/80/23
f 13/20/2 16/81/2 47/58/2 14/57/2
f 22/77/24 32/41/24 35/44/24 23/78/24
f 37/46/11 25/29/11 26/32/11 38/47/11
f 43/52/6 42/51/6 18/22/6 17/21/6
f 45/54/12 11/13/12 14/16/12 46/55/12
f 42/70/25 41/71/25 30/37/25 33/42/25
f 10/82/26 40/67/26 36/45/26 7/83/26
f 34/43/27 31/40/27 1/1/27 50/62/27
f 29/84/28 39/48/28 44/53/28 27/85/28
f 27/85/29 44/53/29 5/56/29 6/86/29
f 10/87/6 9/88/6 41/50/6 40/49/6
f 7/83/28 36/45/28 39/48/28 29/84/28
f 33/42/30 30/37/30 31/40/30 34/43/30
f 46/60/2 48/59/2 4/6/2 5/5/2
f 50/62/31 1/1/31 4/4/31 48/63/31
